<?xml version="1.0" encoding="UTF-8"?>
<svg id="_레이어_1" data-name="레이어 1" xmlns="http://www.w3.org/2000/svg" viewBox="0 0 512 512">
  <g id="Small2">
    <rect id="_사각형_" data-name="&amp;lt;사각형&amp;gt;" x="133" y="133" width="246" height="246" fill="#5f5f5f" stroke="#231815" stroke-miterlimit="10" stroke-width="10"/>
    <g>
      <rect x="346.5" y="346.5" width="20" height="20" rx="2.66" ry="2.66" fill="#fff"/>
      <path d="M363.839,349c.089,0,.161.072.161.161v14.679c0,.089-.072.161-.161.161h-14.679c-.089,0-.161-.072-.161-.161v-14.679c0-.089.072-.161.161-.161h14.679M363.839,344h-14.679c-2.85,0-5.161,2.31-5.161,5.161v14.679c0,2.85,2.31,5.161,5.161,5.161h14.679c2.85,0,5.161-2.31,5.161-5.161v-14.679c0-2.85-2.31-5.161-5.161-5.161h0Z" fill="#231815"/>
    </g>
  </g>
  <path d="M209.612,312.5h92.776c1.326,0,2.598-.527,3.535-1.464l18.612-18.611c.938-.938,1.465-2.209,1.465-3.536v-89.389h-83.53v28.233h-56.47v61.156c0,1.326.527,2.598,1.465,3.536l18.612,18.611c.938.938,2.209,1.464,3.535,1.464Z" fill="#fff" stroke="#231815" stroke-miterlimit="10" stroke-width="10"/>
  <path d="M209.612,285.5h92.776c1.326,0,2.598-.527,3.535-1.464l18.612-18.611c.938-.938,1.465-2.209,1.465-3.536v-84.389c0-2.761-2.239-5-5-5h-73.53c-2.761,0-5,2.239-5,5v23.233h-51.47c-2.761,0-5,2.239-5,5v56.156c0,1.326.527,2.598,1.465,3.536l18.612,18.611c.938.938,2.209,1.464,3.535,1.464Z" fill="#c6c6c6" stroke="#231815" stroke-miterlimit="10" stroke-width="10"/>
</svg>