<?xml version="1.0" encoding="UTF-8"?>
<svg id="_레이어_1" data-name="레이어 1" xmlns="http://www.w3.org/2000/svg" viewBox="0 0 512 512">
  <rect id="_사각형_" data-name="&amp;lt;사각형&amp;gt;" x="133" y="133" width="246" height="246" fill="#5f5f5f" stroke="#231815" stroke-miterlimit="10" stroke-width="10"/>
  <g>
    <path d="M349.16,346.111h14.68c1.468,0,2.66,1.192,2.66,2.66v14.68c0,1.468-1.192,2.66-2.66,2.66h-14.679c-1.469,0-2.661-1.192-2.661-2.661v-14.679c0-1.468,1.192-2.66,2.66-2.66Z" fill="#fff"/>
    <path d="M363.839,348.611c.089,0,.161.072.161.161v14.679c0,.089-.072.161-.161.161h-14.679c-.089,0-.161-.072-.161-.161v-14.679c0-.089.072-.161.161-.161h14.679M363.839,343.611h-14.679c-2.85,0-5.161,2.311-5.161,5.161v14.679c0,2.85,2.31,5.161,5.161,5.161h14.679c2.85,0,5.161-2.31,5.161-5.161v-14.679c0-2.85-2.31-5.161-5.161-5.161h0Z" fill="#231815"/>
  </g>
  <g>
    <path d="M259.253,346.111h14.68c1.468,0,2.66,1.192,2.66,2.66v14.679c0,1.469-1.192,2.661-2.661,2.661h-14.678c-1.469,0-2.661-1.192-2.661-2.661v-14.679c0-1.468,1.192-2.66,2.66-2.66Z" fill="#fff"/>
    <path d="M273.932,348.611c.089,0,.161.072.161.161v14.679c0,.089-.072.161-.161.161h-14.679c-.089,0-.161-.072-.161-.161v-14.679c0-.089.072-.161.161-.161h14.679M273.932,343.611h-14.679c-2.85,0-5.161,2.311-5.161,5.161v14.679c0,2.85,2.31,5.161,5.161,5.161h14.679c2.85,0,5.161-2.31,5.161-5.161v-14.679c0-2.85-2.31-5.161-5.161-5.161h0Z" fill="#231815"/>
  </g>
  <g>
    <path d="M319.253,346.5h14.68c1.468,0,2.66,1.192,2.66,2.66v14.679c0,1.469-1.192,2.661-2.661,2.661h-14.679c-1.468,0-2.66-1.192-2.66-2.66v-14.68c0-1.468,1.192-2.66,2.66-2.66Z" fill="#fff"/>
    <path d="M333.932,349c.089,0,.161.072.161.161v14.679c0,.089-.072.161-.161.161h-14.679c-.089,0-.161-.072-.161-.161v-14.679c0-.089.072-.161.161-.161h14.679M333.932,344h-14.679c-2.85,0-5.161,2.31-5.161,5.161v14.679c0,2.85,2.31,5.161,5.161,5.161h14.679c2.85,0,5.161-2.31,5.161-5.161v-14.679c0-2.85-2.31-5.161-5.161-5.161h0Z" fill="#231815"/>
  </g>
  <g>
    <path d="M289.253,346.5h14.68c1.468,0,2.66,1.192,2.66,2.66v14.679c0,1.469-1.192,2.661-2.661,2.661h-14.679c-1.468,0-2.66-1.192-2.66-2.66v-14.68c0-1.468,1.192-2.66,2.66-2.66Z" fill="#fff"/>
    <path d="M303.932,349c.089,0,.161.072.161.161v14.679c0,.089-.072.161-.161.161h-14.679c-.089,0-.161-.072-.161-.161v-14.679c0-.089.072-.161.161-.161h14.679M303.932,344h-14.679c-2.85,0-5.161,2.31-5.161,5.161v14.679c0,2.85,2.31,5.161,5.161,5.161h14.679c2.85,0,5.161-2.31,5.161-5.161v-14.679c0-2.85-2.31-5.161-5.161-5.161h0Z" fill="#231815"/>
  </g>
  <g>
    <path d="M349.16,315.723h14.68c1.468,0,2.66,1.192,2.66,2.66v14.68c0,1.468-1.192,2.66-2.66,2.66h-14.679c-1.469,0-2.661-1.192-2.661-2.661v-14.679c0-1.468,1.192-2.66,2.66-2.66Z" fill="#fff"/>
    <path d="M363.839,318.222c.089,0,.161.072.161.161v14.679c0,.089-.072.161-.161.161h-14.679c-.089,0-.161-.072-.161-.161v-14.679c0-.089.072-.161.161-.161h14.679M363.839,313.222h-14.679c-2.85,0-5.161,2.31-5.161,5.161v14.679c0,2.85,2.31,5.161,5.161,5.161h14.679c2.85,0,5.161-2.31,5.161-5.161v-14.679c0-2.85-2.31-5.161-5.161-5.161h0Z" fill="#231815"/>
  </g>
  <g>
    <path d="M259.253,315.723h14.68c1.468,0,2.66,1.192,2.66,2.66v14.679c0,1.469-1.192,2.661-2.661,2.661h-14.678c-1.469,0-2.661-1.192-2.661-2.661v-14.679c0-1.468,1.192-2.66,2.66-2.66Z" fill="#fff"/>
    <path d="M273.932,318.222c.089,0,.161.072.161.161v14.679c0,.089-.072.161-.161.161h-14.679c-.089,0-.161-.072-.161-.161v-14.679c0-.089.072-.161.161-.161h14.679M273.932,313.222h-14.679c-2.85,0-5.161,2.31-5.161,5.161v14.679c0,2.85,2.31,5.161,5.161,5.161h14.679c2.85,0,5.161-2.31,5.161-5.161v-14.679c0-2.85-2.31-5.161-5.161-5.161h0Z" fill="#231815"/>
  </g>
  <g>
    <path d="M319.253,316.111h14.68c1.468,0,2.66,1.192,2.66,2.66v14.679c0,1.469-1.192,2.661-2.661,2.661h-14.678c-1.469,0-2.661-1.192-2.661-2.661v-14.679c0-1.468,1.192-2.66,2.66-2.66Z" fill="#fff"/>
    <path d="M333.932,318.611c.089,0,.161.072.161.161v14.679c0,.089-.072.161-.161.161h-14.679c-.089,0-.161-.072-.161-.161v-14.679c0-.089.072-.161.161-.161h14.679M333.932,313.611h-14.679c-2.85,0-5.161,2.31-5.161,5.161v14.679c0,2.85,2.31,5.161,5.161,5.161h14.679c2.85,0,5.161-2.31,5.161-5.161v-14.679c0-2.85-2.31-5.161-5.161-5.161h0Z" fill="#231815"/>
  </g>
  <g>
    <path d="M289.253,316.111h14.68c1.468,0,2.66,1.192,2.66,2.66v14.679c0,1.469-1.192,2.661-2.661,2.661h-14.678c-1.469,0-2.661-1.192-2.661-2.661v-14.679c0-1.468,1.192-2.66,2.66-2.66Z" fill="#fff"/>
    <path d="M303.932,318.611c.089,0,.161.072.161.161v14.679c0,.089-.072.161-.161.161h-14.679c-.089,0-.161-.072-.161-.161v-14.679c0-.089.072-.161.161-.161h14.679M303.932,313.611h-14.679c-2.85,0-5.161,2.31-5.161,5.161v14.679c0,2.85,2.31,5.161,5.161,5.161h14.679c2.85,0,5.161-2.31,5.161-5.161v-14.679c0-2.85-2.31-5.161-5.161-5.161h0Z" fill="#231815"/>
  </g>
  <g>
    <path d="M221.512,289.279c-2.254,0-4.237-1.525-4.823-3.709l-31.783-118.621c-.114-.422-.171-.856-.171-1.294v-71.01c0-2.259,1.524-4.246,3.706-4.831l26.112-6.995c.429-.115.866-.174,1.301-.174,2.255,0,4.238,1.525,4.824,3.709l6.394,23.865c1.754,6.548,7.71,11.12,14.482,11.12,1.309,0,2.617-.174,3.889-.515l23.866-6.394c.429-.115.866-.174,1.301-.174,2.254,0,4.237,1.525,4.823,3.709l6.394,23.865c1.755,6.548,7.711,11.121,14.483,11.121,1.309,0,2.617-.174,3.889-.514l23.865-6.395c.429-.115.866-.174,1.301-.174,2.255,0,4.238,1.525,4.822,3.708l8.643,32.254c.114.422.171.856.171,1.294v71.011c0,2.259-1.524,4.245-3.707,4.83l-112.48,30.138c-.429.115-.866.174-1.301.174Z" fill="#fff"/>
    <path d="M215.847,87.648l6.395,23.865c2.339,8.729,10.281,14.826,19.312,14.826,1.745,0,3.489-.23,5.182-.684l23.866-6.395,6.395,23.865c2.339,8.73,10.28,14.826,19.312,14.826,1.745,0,3.488-.23,5.183-.684l23.865-6.395,8.642,32.253v71.01s-112.481,30.139-112.481,30.139l-31.785-118.621v-71.01s26.113-6.997,26.113-6.997M215.853,77.646c-.857,0-1.727.111-2.594.343l-26.113,6.997c-4.372,1.172-7.412,5.133-7.412,9.659v71.01c0,.874.115,1.744.341,2.588l31.785,118.621c1.197,4.468,5.238,7.414,9.653,7.414.857,0,1.727-.111,2.594-.343l112.481-30.139c4.372-1.171,7.412-5.133,7.412-9.659v-71.01c0-.874-.115-1.744-.341-2.588l-8.642-32.253c-1.197-4.468-5.238-7.414-9.653-7.414-.857,0-1.727.111-2.594.343l-23.866,6.395c-.867.232-1.738.343-2.594.343-4.416,0-8.456-2.946-9.653-7.414l-6.395-23.866c-1.197-4.468-5.238-7.414-9.653-7.414-.857,0-1.728.111-2.595.343l-23.866,6.395c-.867.232-1.738.343-2.594.343-4.416,0-8.456-2.946-9.653-7.414l-6.395-23.866c-1.197-4.468-5.238-7.414-9.653-7.414h0Z" fill="#231815"/>
  </g>
  <g>
    <path d="M221.512,209.279c-2.254,0-4.237-1.525-4.823-3.709l-29.536-110.233c-.347-1.29-.169-2.638.499-3.794.668-1.157,1.746-1.984,3.035-2.329l23.866-6.395c.429-.115.866-.174,1.301-.174,2.255,0,4.238,1.525,4.824,3.709l6.394,23.865c1.754,6.548,7.71,11.12,14.482,11.12,1.309,0,2.617-.174,3.889-.514l23.866-6.395c.429-.115.866-.174,1.301-.174,2.254,0,4.237,1.525,4.822,3.709l6.395,23.865c1.755,6.548,7.711,11.121,14.483,11.121,1.309,0,2.617-.174,3.889-.514l23.865-6.395c.429-.115.866-.174,1.301-.174,2.255,0,4.238,1.525,4.822,3.708l6.396,23.866c.713,2.663-.873,5.411-3.536,6.124l-110.234,29.536c-.429.115-.866.174-1.301.174Z" fill="#8e8e8e"/>
    <path d="M215.847,87.649l6.395,23.865c2.339,8.729,10.281,14.826,19.312,14.826,1.745,0,3.489-.23,5.183-.684l23.866-6.395,6.395,23.865c2.339,8.729,10.28,14.826,19.312,14.826,1.745,0,3.489-.23,5.182-.684l23.866-6.395,6.395,23.866-110.234,29.537-29.537-110.234,23.866-6.394M215.853,77.646c-.857,0-1.727.111-2.594.343l-23.866,6.395c-5.335,1.429-8.5,6.913-7.071,12.247l29.537,110.234c1.197,4.468,5.238,7.414,9.653,7.414.857,0,1.727-.111,2.594-.343l110.234-29.537c5.335-1.429,8.5-6.913,7.071-12.247l-6.395-23.866c-1.197-4.468-5.238-7.414-9.653-7.414-.857,0-1.727.111-2.594.343l-23.866,6.395c-.867.232-1.738.343-2.594.343-4.416,0-8.456-2.946-9.653-7.414l-6.395-23.866c-1.197-4.468-5.238-7.414-9.653-7.414-.857,0-1.728.111-2.595.343l-23.866,6.395c-.867.232-1.738.343-2.594.343-4.415,0-8.456-2.946-9.653-7.414l-6.395-23.866c-1.197-4.468-5.238-7.414-9.653-7.414h0Z" fill="#231815"/>
  </g>
  <g>
    <path d="M231.196,190.21c-2.255,0-4.238-1.525-4.823-3.709l-13.895-51.854c-.112-.42-.17-.856-.17-1.295v-11.01c0-2.26,1.523-4.245,3.705-4.829l45.698-12.245c.428-.115.865-.173,1.3-.173,2.259,0,4.243,1.528,4.825,3.717l13.911,52.271c.112.421.169.853.169,1.286v10.588c0,2.259-1.523,4.245-3.706,4.829l-45.714,12.249c-.429.115-.866.174-1.301.174Z" fill="#fff"/>
    <path d="M263.006,110.099l13.911,52.271v10.588s-45.714,12.249-45.714,12.249l-13.894-51.854v-11.01l45.698-12.244M263.012,100.095c-.857,0-1.728.111-2.594.343l-45.698,12.245c-4.372,1.172-7.412,5.133-7.412,9.659v11.01c0,.874.115,1.744.341,2.588l13.894,51.854c1.197,4.468,5.237,7.414,9.653,7.414.857,0,1.728-.111,2.594-.343l45.714-12.249c4.372-1.171,7.412-5.133,7.412-9.659v-10.588c0-.868-.113-1.733-.336-2.572l-13.911-52.272c-1.191-4.476-5.236-7.431-9.657-7.431h0Z" fill="#231815"/>
  </g>
  <g>
    <path d="M231.196,170.21c-2.255,0-4.238-1.525-4.823-3.709l-11.646-43.466c-.714-2.663.872-5.411,3.535-6.124l43.466-11.646c.429-.115.866-.174,1.301-.174,2.255,0,4.238,1.525,4.823,3.709l11.646,43.466c.714,2.663-.872,5.411-3.535,6.124l-43.466,11.646c-.429.115-.866.174-1.301.174Z" fill="#c6c6c6"/>
    <path d="M263.022,110.094l11.647,43.466-43.467,11.647-11.647-43.467,43.467-11.646M263.029,100.091c-.857,0-1.728.111-2.594.343l-43.467,11.647c-5.335,1.429-8.5,6.913-7.071,12.247l11.647,43.467c1.197,4.468,5.237,7.414,9.653,7.414.857,0,1.728-.111,2.595-.343l43.467-11.647c5.335-1.429,8.5-6.913,7.071-12.247l-11.647-43.467c-1.197-4.468-5.238-7.414-9.653-7.414h0Z" fill="#231815"/>
  </g>
</svg>