<?xml version="1.0" encoding="UTF-8"?>
<svg id="_레이어_1" data-name="레이어 1" xmlns="http://www.w3.org/2000/svg" viewBox="0 0 512 512">
  <g id="Medium2">
    <rect id="_사각형_" data-name="&amp;lt;사각형&amp;gt;" x="133" y="133" width="246" height="246" fill="#5f5f5f" stroke="#231815" stroke-miterlimit="10" stroke-width="10"/>
    <path d="M199.011,313.476h-38.365c-6.581,0-11.916-4.477-11.916-10v-135.747c0-5.523,5.335-10,11.916-10h38.365c6.581,0,11.916,4.477,11.916,10v135.747c0,5.523-5.335,10-11.916,10Z" fill="#fff" stroke="#231815" stroke-miterlimit="10" stroke-width="10"/>
    <path d="M275.775,313.476h-38.365c-6.581,0-11.916-4.477-11.916-10v-135.747c0-5.523,5.335-10,11.916-10h38.365c6.581,0,11.916,4.477,11.916,10v135.747c0,5.523-5.335,10-11.916,10Z" fill="#fff" stroke="#231815" stroke-miterlimit="10" stroke-width="10"/>
    <path d="M352.539,313.476h-38.365c-6.581,0-11.916-4.477-11.916-10v-135.747c0-5.523,5.335-10,11.916-10h38.365c6.581,0,11.916,4.477,11.916,10v135.747c0,5.523-5.335,10-11.916,10Z" fill="#fff" stroke="#231815" stroke-miterlimit="10" stroke-width="10"/>
    <path d="M199.011,272.508h-38.365c-6.581,0-11.916-4.477-11.916-10v-124.747c0-5.523,5.335-10,11.916-10h38.365c6.581,0,11.916,4.477,11.916,10v124.747c0,5.523-5.335,10-11.916,10Z" fill="#c6c6c6" stroke="#231815" stroke-miterlimit="10" stroke-width="10"/>
    <path d="M275.775,272.508h-38.365c-6.581,0-11.916-4.477-11.916-10v-124.747c0-5.523,5.335-10,11.916-10h38.365c6.581,0,11.916,4.477,11.916,10v124.747c0,5.523-5.335,10-11.916,10Z" fill="#c6c6c6" stroke="#231815" stroke-miterlimit="10" stroke-width="10"/>
    <path d="M352.539,272.508h-38.365c-6.581,0-11.916-4.477-11.916-10v-124.747c0-5.523,5.335-10,11.916-10h38.365c6.581,0,11.916,4.477,11.916,10v124.747c0,5.523-5.335,10-11.916,10Z" fill="#c6c6c6" stroke="#231815" stroke-miterlimit="10" stroke-width="10"/>
    <g>
      <path d="M349.16,346.111h14.68c1.468,0,2.66,1.192,2.66,2.66v14.68c0,1.468-1.192,2.66-2.66,2.66h-14.679c-1.469,0-2.661-1.192-2.661-2.661v-14.679c0-1.468,1.192-2.66,2.66-2.66Z" fill="#fff"/>
      <path d="M363.839,348.611c.089,0,.161.072.161.161v14.679c0,.089-.072.161-.161.161h-14.679c-.089,0-.161-.072-.161-.161v-14.679c0-.089.072-.161.161-.161h14.679M363.839,343.611h-14.679c-2.85,0-5.161,2.31-5.161,5.161v14.679c0,2.85,2.31,5.161,5.161,5.161h14.679c2.85,0,5.161-2.31,5.161-5.161v-14.679c0-2.85-2.31-5.161-5.161-5.161h0Z" fill="#231815"/>
    </g>
    <g>
      <path d="M259.253,346.111h14.68c1.468,0,2.66,1.192,2.66,2.66v14.68c0,1.468-1.192,2.66-2.66,2.66h-14.679c-1.469,0-2.661-1.192-2.661-2.661v-14.679c0-1.468,1.192-2.66,2.66-2.66Z" fill="#fff"/>
      <path d="M273.932,348.611c.089,0,.161.072.161.161v14.679c0,.089-.072.161-.161.161h-14.679c-.089,0-.161-.072-.161-.161v-14.679c0-.089.072-.161.161-.161h14.679M273.932,343.611h-14.679c-2.85,0-5.161,2.31-5.161,5.161v14.679c0,2.85,2.31,5.161,5.161,5.161h14.679c2.85,0,5.161-2.31,5.161-5.161v-14.679c0-2.85-2.31-5.161-5.161-5.161h0Z" fill="#231815"/>
    </g>
    <g>
      <rect x="316.593" y="346.5" width="20" height="20" rx="2.66" ry="2.66" fill="#fff"/>
      <path d="M333.932,349c.089,0,.161.072.161.161v14.679c0,.089-.072.161-.161.161h-14.679c-.089,0-.161-.072-.161-.161v-14.679c0-.089.072-.161.161-.161h14.679M333.932,344h-14.679c-2.85,0-5.161,2.31-5.161,5.161v14.679c0,2.85,2.31,5.161,5.161,5.161h14.679c2.85,0,5.161-2.31,5.161-5.161v-14.679c0-2.85-2.31-5.161-5.161-5.161h0Z" fill="#231815"/>
    </g>
    <g>
      <rect x="286.593" y="346.5" width="20" height="20" rx="2.66" ry="2.66" fill="#fff"/>
      <path d="M303.932,349c.089,0,.161.072.161.161v14.679c0,.089-.072.161-.161.161h-14.679c-.089,0-.161-.072-.161-.161v-14.679c0-.089.072-.161.161-.161h14.679M303.932,344h-14.679c-2.85,0-5.161,2.31-5.161,5.161v14.679c0,2.85,2.31,5.161,5.161,5.161h14.679c2.85,0,5.161-2.31,5.161-5.161v-14.679c0-2.85-2.31-5.161-5.161-5.161h0Z" fill="#231815"/>
    </g>
  </g>
</svg>