<?xml version="1.0" encoding="UTF-8"?>
<svg id="_레이어_1" data-name="레이어 1" xmlns="http://www.w3.org/2000/svg" viewBox="0 0 512 512">
  <rect id="_사각형_" data-name="&amp;lt;사각형&amp;gt;" x="133" y="133" width="246" height="246" fill="#5f5f5f" stroke="#231815" stroke-miterlimit="10" stroke-width="10"/>
  <g>
    <path d="M349.16,346.111h14.68c1.468,0,2.66,1.192,2.66,2.66v14.68c0,1.468-1.192,2.66-2.66,2.66h-14.679c-1.469,0-2.661-1.192-2.661-2.661v-14.679c0-1.468,1.192-2.66,2.66-2.66Z" fill="#fff"/>
    <path d="M363.839,348.611c.089,0,.161.072.161.161v14.679c0,.089-.072.161-.161.161h-14.679c-.089,0-.161-.072-.161-.161v-14.679c0-.089.072-.161.161-.161h14.679M363.839,343.611h-14.679c-2.85,0-5.161,2.31-5.161,5.161v14.679c0,2.85,2.31,5.161,5.161,5.161h14.679c2.85,0,5.161-2.31,5.161-5.161v-14.679c0-2.85-2.31-5.161-5.161-5.161h0Z" fill="#231815"/>
  </g>
  <g>
    <path d="M259.253,346.111h14.68c1.468,0,2.66,1.192,2.66,2.66v14.68c0,1.468-1.192,2.66-2.66,2.66h-14.679c-1.469,0-2.661-1.192-2.661-2.661v-14.679c0-1.468,1.192-2.66,2.66-2.66Z" fill="#fff"/>
    <path d="M273.932,348.611c.089,0,.161.072.161.161v14.679c0,.089-.072.161-.161.161h-14.679c-.089,0-.161-.072-.161-.161v-14.679c0-.089.072-.161.161-.161h14.679M273.932,343.611h-14.679c-2.85,0-5.161,2.31-5.161,5.161v14.679c0,2.85,2.31,5.161,5.161,5.161h14.679c2.85,0,5.161-2.31,5.161-5.161v-14.679c0-2.85-2.31-5.161-5.161-5.161h0Z" fill="#231815"/>
  </g>
  <g>
    <rect x="316.593" y="346.5" width="20" height="20" rx="2.66" ry="2.66" fill="#fff"/>
    <path d="M333.932,349c.089,0,.161.072.161.161v14.679c0,.089-.072.161-.161.161h-14.679c-.089,0-.161-.072-.161-.161v-14.679c0-.089.072-.161.161-.161h14.679M333.932,344h-14.679c-2.85,0-5.161,2.31-5.161,5.161v14.679c0,2.85,2.31,5.161,5.161,5.161h14.679c2.85,0,5.161-2.311,5.161-5.161v-14.679c0-2.85-2.31-5.161-5.161-5.161h0Z" fill="#231815"/>
  </g>
  <g>
    <rect x="286.593" y="346.5" width="20" height="20" rx="2.66" ry="2.66" fill="#fff"/>
    <path d="M303.932,349c.089,0,.161.072.161.161v14.679c0,.089-.072.161-.161.161h-14.679c-.089,0-.161-.072-.161-.161v-14.679c0-.089.072-.161.161-.161h14.679M303.932,344h-14.679c-2.85,0-5.161,2.31-5.161,5.161v14.679c0,2.85,2.31,5.161,5.161,5.161h14.679c2.85,0,5.161-2.311,5.161-5.161v-14.679c0-2.85-2.31-5.161-5.161-5.161h0Z" fill="#231815"/>
  </g>
  <g>
    <path d="M349.16,315.722h14.679c1.469,0,2.661,1.192,2.661,2.661v14.679c0,1.468-1.192,2.66-2.66,2.66h-14.68c-1.468,0-2.66-1.192-2.66-2.66v-14.68c0-1.468,1.192-2.66,2.66-2.66Z" fill="#fff"/>
    <path d="M363.839,318.222c.089,0,.161.072.161.161v14.679c0,.089-.072.161-.161.161h-14.679c-.089,0-.161-.072-.161-.161v-14.679c0-.089.072-.161.161-.161h14.679M363.839,313.222h-14.679c-2.85,0-5.161,2.31-5.161,5.161v14.679c0,2.85,2.31,5.161,5.161,5.161h14.679c2.85,0,5.161-2.311,5.161-5.161v-14.679c0-2.85-2.31-5.161-5.161-5.161h0Z" fill="#231815"/>
  </g>
  <g>
    <path d="M259.253,315.722h14.679c1.469,0,2.661,1.192,2.661,2.661v14.678c0,1.469-1.192,2.661-2.661,2.661h-14.679c-1.468,0-2.66-1.192-2.66-2.66v-14.68c0-1.468,1.192-2.66,2.66-2.66Z" fill="#fff"/>
    <path d="M273.932,318.222c.089,0,.161.072.161.161v14.679c0,.089-.072.161-.161.161h-14.679c-.089,0-.161-.072-.161-.161v-14.679c0-.089.072-.161.161-.161h14.679M273.932,313.222h-14.679c-2.85,0-5.161,2.31-5.161,5.161v14.679c0,2.85,2.31,5.161,5.161,5.161h14.679c2.85,0,5.161-2.311,5.161-5.161v-14.679c0-2.85-2.31-5.161-5.161-5.161h0Z" fill="#231815"/>
  </g>
  <g>
    <path d="M319.253,316.111h14.68c1.468,0,2.66,1.192,2.66,2.66v14.68c0,1.468-1.192,2.66-2.66,2.66h-14.679c-1.469,0-2.661-1.192-2.661-2.661v-14.679c0-1.468,1.192-2.66,2.66-2.66Z" fill="#fff"/>
    <path d="M333.932,318.611c.089,0,.161.072.161.161v14.679c0,.089-.072.161-.161.161h-14.679c-.089,0-.161-.072-.161-.161v-14.679c0-.089.072-.161.161-.161h14.679M333.932,313.611h-14.679c-2.85,0-5.161,2.31-5.161,5.161v14.679c0,2.85,2.31,5.161,5.161,5.161h14.679c2.85,0,5.161-2.311,5.161-5.161v-14.679c0-2.85-2.31-5.161-5.161-5.161h0Z" fill="#231815"/>
  </g>
  <g>
    <path d="M289.253,316.111h14.68c1.468,0,2.66,1.192,2.66,2.66v14.68c0,1.468-1.192,2.66-2.66,2.66h-14.679c-1.469,0-2.661-1.192-2.661-2.661v-14.679c0-1.468,1.192-2.66,2.66-2.66Z" fill="#fff"/>
    <path d="M303.932,318.611c.089,0,.161.072.161.161v14.679c0,.089-.072.161-.161.161h-14.679c-.089,0-.161-.072-.161-.161v-14.679c0-.089.072-.161.161-.161h14.679M303.932,313.611h-14.679c-2.85,0-5.161,2.31-5.161,5.161v14.679c0,2.85,2.31,5.161,5.161,5.161h14.679c2.85,0,5.161-2.311,5.161-5.161v-14.679c0-2.85-2.31-5.161-5.161-5.161h0Z" fill="#231815"/>
  </g>
  <g>
    <path d="M258.592,298.504c-2.255,0-4.238-1.525-4.822-3.708l-12.859-47.99c-1.383-5.16-5.447-9.225-10.607-10.607l-50.237-13.461c-2.182-.584-3.705-2.57-3.705-4.829v-71.01c0-.438.057-.872.17-1.291l12.77-47.656c.584-2.184,2.567-3.709,4.822-3.709.435,0,.872.059,1.301.174l47.99,12.859c1.267.339,2.571.511,3.88.511,4.008,0,7.775-1.561,10.608-4.395l35.131-35.131c.944-.944,2.2-1.464,3.536-1.464s2.591.52,3.535,1.464l32.887,32.887c.93.931,1.464,2.22,1.464,3.536v71.716c0,1.315-.534,2.604-1.464,3.535l-23.485,23.485c-2.834,2.834-4.394,6.601-4.394,10.606v68.352c0,2.259-1.523,4.245-3.706,4.829l-41.513,11.123c-.429.115-.866.174-1.301.174Z" fill="#fff"/>
    <path d="M296.568,71.797l32.886,32.886v71.716l-23.485,23.485c-3.778,3.778-5.858,8.8-5.858,14.142v68.352s-41.513,11.123-41.513,11.123l-12.859-47.99c-1.844-6.88-7.263-12.299-14.142-14.142l-50.237-13.461v-71.01s12.769-47.653,12.769-47.653l47.99,12.859c1.688.452,3.43.682,5.176.682,5.342,0,10.365-2.08,14.143-5.858l35.121-35.13s.005,0,.01,0M296.568,61.797c-2.559,0-5.118.976-7.071,2.929l-35.131,35.131c-1.9,1.9-4.454,2.929-7.072,2.929-.863,0-1.732-.112-2.588-.341l-47.99-12.859c-.867-.232-1.738-.343-2.594-.343-4.415,0-8.456,2.946-9.653,7.414l-12.769,47.653c-.226.844-.341,1.714-.341,2.588v71.01c0,4.526,3.04,8.488,7.412,9.659l50.237,13.461c3.451.925,6.146,3.62,7.071,7.071l12.859,47.99c1.197,4.468,5.238,7.414,9.653,7.414.857,0,1.727-.111,2.594-.343l41.513-11.123c4.372-1.172,7.412-5.133,7.412-9.659v-68.352c0-2.652,1.054-5.196,2.929-7.071l23.485-23.485c1.875-1.875,2.929-4.419,2.929-7.071v-71.716c0-2.652-1.054-5.196-2.929-7.071l-32.886-32.886c-1.953-1.953-4.512-2.929-7.071-2.929h0Z" fill="#231815"/>
  </g>
  <g>
    <path d="M258.592,218.504c-2.255,0-4.238-1.525-4.822-3.708l-12.859-47.99c-1.383-5.16-5.447-9.225-10.607-10.607l-47.989-12.858c-1.29-.346-2.368-1.173-3.036-2.329-.668-1.157-.846-2.504-.5-3.793l10.522-39.267c.584-2.184,2.567-3.709,4.822-3.709.435,0,.872.059,1.301.174l47.99,12.859c1.267.339,2.571.511,3.88.511,4.008,0,7.775-1.561,10.608-4.395l35.131-35.131c.944-.944,2.2-1.464,3.536-1.464s2.591.52,3.535,1.464l28.744,28.744c1.949,1.95,1.949,5.122,0,7.072l-35.131,35.131c-3.777,3.776-5.265,9.329-3.883,14.488l12.858,47.989c.714,2.663-.872,5.411-3.535,6.125l-39.265,10.52c-.429.115-.866.174-1.301.174Z" fill="#8e8e8e"/>
    <path d="M296.568,71.797l28.744,28.744-35.131,35.131c-5.036,5.036-7.02,12.439-5.177,19.319l12.859,47.99-39.265,10.521-12.859-47.99c-1.843-6.88-7.262-12.299-14.142-14.142l-47.99-12.859,10.521-39.265,47.99,12.859c1.688.452,3.43.682,5.176.682,5.342,0,10.365-2.08,14.143-5.858l35.121-35.13s.005,0,.01,0M296.568,61.797c-2.559,0-5.118.976-7.071,2.929l-35.131,35.131c-1.9,1.9-4.454,2.929-7.072,2.929-.863,0-1.732-.112-2.588-.341l-47.99-12.859c-.867-.232-1.738-.343-2.594-.343-4.415,0-8.456,2.946-9.653,7.414l-10.521,39.265c-1.429,5.335,1.736,10.818,7.071,12.247l47.99,12.859c3.451.925,6.146,3.62,7.071,7.071l12.859,47.99c1.197,4.468,5.238,7.414,9.653,7.414.857,0,1.727-.111,2.594-.343l39.265-10.521c5.335-1.429,8.5-6.913,7.071-12.247l-12.859-47.99c-.925-3.451.062-7.133,2.588-9.659l35.131-35.131c3.905-3.905,3.905-10.237,0-14.142l-28.744-28.744c-1.953-1.953-4.512-2.929-7.071-2.929h0Z" fill="#231815"/>
  </g>
  <g>
    <path d="M259.347,155.321c-9.683,0-17.56-7.877-17.56-17.559s7.877-17.56,17.56-17.56,17.559,7.877,17.559,17.56-7.877,17.559-17.559,17.559Z" fill="#fff"/>
    <path d="M259.346,125.203c6.925,0,12.559,5.634,12.559,12.559s-5.634,12.559-12.559,12.559-12.559-5.634-12.559-12.559,5.634-12.559,12.559-12.559M259.346,115.203c-12.459,0-22.559,10.1-22.559,22.559s10.1,22.559,22.559,22.559,22.559-10.1,22.559-22.559-10.1-22.559-22.559-22.559h0Z" fill="#231815"/>
  </g>
  <g>
    <path d="M259.347,143.56c-9.683,0-17.56-7.877-17.56-17.56s7.877-17.56,17.56-17.56,17.559,7.877,17.559,17.56-7.877,17.56-17.559,17.56Z" fill="#c6c6c6"/>
    <path d="M259.346,113.441c6.925,0,12.559,5.634,12.559,12.559s-5.634,12.559-12.559,12.559-12.559-5.634-12.559-12.559,5.634-12.559,12.559-12.559M259.346,103.441c-12.459,0-22.559,10.1-22.559,22.559s10.1,22.559,22.559,22.559,22.559-10.1,22.559-22.559-10.1-22.559-22.559-22.559h0Z" fill="#231815"/>
  </g>
</svg>