<?xml version="1.0" encoding="UTF-8"?>
<svg id="_레이어_1" data-name="레이어 1" xmlns="http://www.w3.org/2000/svg" viewBox="0 0 512 512">
  <g id="Small1">
    <rect id="_사각형_" data-name="&amp;lt;사각형&amp;gt;" x="133" y="133" width="246" height="246" fill="#5f5f5f" stroke="#231815" stroke-miterlimit="10" stroke-width="10"/>
    <path d="M322.5,200h-105.767v20.594h-25.233v90.406c0,2.761,2.239,5,5,5h90.931c2.761,0,5-2.239,5-5v-23.79h25.069c2.761,0,5-2.239,5-5v-82.21Z" fill="#fff" stroke="#231815" stroke-miterlimit="10" stroke-width="10"/>
    <path d="M317.5,175h-95.767c-2.761,0-5,2.239-5,5v15.594h-20.233c-2.761,0-5,2.239-5,5v85.406c0,2.761,2.239,5,5,5h90.931c2.761,0,5-2.239,5-5v-23.79h25.069c2.761,0,5-2.239,5-5v-77.21c0-2.761-2.239-5-5-5Z" fill="#c6c6c6" stroke="#231815" stroke-miterlimit="10" stroke-width="10"/>
    <g>
      <rect x="346.5" y="346.5" width="20" height="20" rx="2.66" ry="2.66" fill="#fff"/>
      <path d="M363.839,349c.089,0,.161.072.161.161v14.679c0,.089-.072.161-.161.161h-14.679c-.089,0-.161-.072-.161-.161v-14.679c0-.089.072-.161.161-.161h14.679M363.839,344h-14.679c-2.85,0-5.161,2.31-5.161,5.161v14.679c0,2.85,2.31,5.161,5.161,5.161h14.679c2.85,0,5.161-2.31,5.161-5.161v-14.679c0-2.85-2.31-5.161-5.161-5.161h0Z" fill="#231815"/>
    </g>
  </g>
</svg>