<?xml version="1.0" encoding="UTF-8"?>
<svg id="_레이어_1" data-name="레이어 1" xmlns="http://www.w3.org/2000/svg" viewBox="0 0 512 512">
  <g id="Medium3">
    <rect id="_사각형_" data-name="&amp;lt;사각형&amp;gt;" x="133" y="133" width="246" height="246" fill="#5f5f5f" stroke="#231815" stroke-miterlimit="10" stroke-width="10"/>
    <path d="M337.82,205.054h-21.688v-34.288c0-5.523-4.477-10-10-10h-93.619c-5.523,0-10,4.477-10,10v28.333h-28.333c-5.523,0-10,4.477-10,10v93.619c0,5.523,4.477,10,10,10h131.952c5.523,0,10-4.477,10-10v-34.288h21.688c5.523,0,10-4.477,10-10v-43.376c0-5.523-4.477-10-10-10Z" fill="#fff" stroke="#231815" stroke-miterlimit="10" stroke-width="10"/>
    <path d="M337.82,185.054h-21.688v-34.288c0-5.523-4.477-10-10-10h-93.619c-5.523,0-10,4.477-10,10v28.333h-28.333c-5.523,0-10,4.477-10,10v93.619c0,5.523,4.477,10,10,10h131.952c5.523,0,10-4.477,10-10v-34.288h21.688c5.523,0,10-4.477,10-10v-43.376c0-5.523-4.477-10-10-10Z" fill="#8e8e8e" stroke="#231815" stroke-miterlimit="10" stroke-width="10"/>
    <path d="M337.82,170.054h-21.688v-34.288c0-5.523-4.477-10-10-10h-93.619c-5.523,0-10,4.477-10,10v28.333h-28.333c-5.523,0-10,4.477-10,10v93.619c0,5.523,4.477,10,10,10h131.952c5.523,0,10-4.477,10-10v-34.288h21.688c5.523,0,10-4.477,10-10v-43.376c0-5.523-4.477-10-10-10Z" fill="#fff" stroke="#231815" stroke-miterlimit="10" stroke-width="10"/>
    <path d="M337.82,150.054h-21.688v-34.288c0-5.523-4.477-10-10-10h-93.619c-5.523,0-10,4.477-10,10v28.333h-28.333c-5.523,0-10,4.477-10,10v93.619c0,5.523,4.477,10,10,10h131.952c5.523,0,10-4.477,10-10v-34.288h21.688c5.523,0,10-4.477,10-10v-43.376c0-5.523-4.477-10-10-10Z" fill="#c6c6c6" stroke="#231815" stroke-miterlimit="10" stroke-width="10"/>
    <g>
      <path d="M349.16,345.354h14.68c1.468,0,2.66,1.192,2.66,2.66v14.68c0,1.468-1.192,2.66-2.66,2.66h-14.679c-1.469,0-2.661-1.192-2.661-2.661v-14.679c0-1.468,1.192-2.66,2.66-2.66Z" fill="#fff"/>
      <path d="M363.839,347.853c.089,0,.161.072.161.161v14.679c0,.089-.072.161-.161.161h-14.679c-.089,0-.161-.072-.161-.161v-14.679c0-.089.072-.161.161-.161h14.679M363.839,342.853h-14.679c-2.85,0-5.161,2.31-5.161,5.161v14.679c0,2.85,2.31,5.161,5.161,5.161h14.679c2.85,0,5.161-2.31,5.161-5.161v-14.679c0-2.85-2.31-5.161-5.161-5.161h0Z" fill="#231815"/>
    </g>
    <g>
      <path d="M259.253,345.354h14.68c1.468,0,2.66,1.192,2.66,2.66v14.679c0,1.469-1.192,2.661-2.661,2.661h-14.678c-1.469,0-2.661-1.192-2.661-2.661v-14.679c0-1.468,1.192-2.66,2.66-2.66Z" fill="#fff"/>
      <path d="M273.932,347.853c.089,0,.161.072.161.161v14.679c0,.089-.072.161-.161.161h-14.679c-.089,0-.161-.072-.161-.161v-14.679c0-.089.072-.161.161-.161h14.679M273.932,342.853h-14.679c-2.85,0-5.161,2.31-5.161,5.161v14.679c0,2.85,2.31,5.161,5.161,5.161h14.679c2.85,0,5.161-2.31,5.161-5.161v-14.679c0-2.85-2.31-5.161-5.161-5.161h0Z" fill="#231815"/>
    </g>
    <g>
      <path d="M319.253,345.742h14.68c1.468,0,2.66,1.192,2.66,2.66v14.679c0,1.469-1.192,2.661-2.661,2.661h-14.678c-1.469,0-2.661-1.192-2.661-2.661v-14.679c0-1.468,1.192-2.66,2.66-2.66Z" fill="#fff"/>
      <path d="M333.932,348.242c.089,0,.161.072.161.161v14.679c0,.089-.072.161-.161.161h-14.679c-.089,0-.161-.072-.161-.161v-14.679c0-.089.072-.161.161-.161h14.679M333.932,343.242h-14.679c-2.85,0-5.161,2.31-5.161,5.161v14.679c0,2.85,2.31,5.161,5.161,5.161h14.679c2.85,0,5.161-2.31,5.161-5.161v-14.679c0-2.85-2.31-5.161-5.161-5.161h0Z" fill="#231815"/>
    </g>
    <g>
      <path d="M289.253,345.742h14.68c1.468,0,2.66,1.192,2.66,2.66v14.679c0,1.469-1.192,2.661-2.661,2.661h-14.678c-1.469,0-2.661-1.192-2.661-2.661v-14.679c0-1.468,1.192-2.66,2.66-2.66Z" fill="#fff"/>
      <path d="M303.932,348.242c.089,0,.161.072.161.161v14.679c0,.089-.072.161-.161.161h-14.679c-.089,0-.161-.072-.161-.161v-14.679c0-.089.072-.161.161-.161h14.679M303.932,343.242h-14.679c-2.85,0-5.161,2.31-5.161,5.161v14.679c0,2.85,2.31,5.161,5.161,5.161h14.679c2.85,0,5.161-2.31,5.161-5.161v-14.679c0-2.85-2.31-5.161-5.161-5.161h0Z" fill="#231815"/>
    </g>
  </g>
</svg>