<?xml version="1.0" encoding="UTF-8"?>
<svg id="_레이어_1" data-name="레이어 1" xmlns="http://www.w3.org/2000/svg" viewBox="0 0 512 512">
  <rect id="_사각형_" data-name="&amp;lt;사각형&amp;gt;" x="133" y="133" width="246" height="246" fill="#5f5f5f" stroke="#231815" stroke-miterlimit="10" stroke-width="10"/>
  <g>
    <path d="M292.369,291.524c-1.335,0-2.591-.521-3.535-1.464l-40.228-40.229h-91.516c-2.757,0-5-2.243-5-5v-113.357c0-2.757,2.243-5,5-5h91.516l22.112-22.111v-50.15c0-2.757,2.243-5,5-5h33.34c2.757,0,5,2.243,5,5v50.15l44.389,44.387c.943.944,1.464,2.201,1.464,3.536v71.374c0,1.33-.517,2.583-1.456,3.526l-62.54,62.864c-.945.95-2.204,1.474-3.544,1.474h0Z" fill="#fff"/>
    <path d="M309.057,54.213v52.221l2.929,2.929,42.924,42.924v71.373s-62.541,62.864-62.541,62.864l-38.763-38.763-2.929-2.929h-93.588v-113.358h93.587l2.929-2.929,19.183-19.183,2.929-2.929v-52.221h33.339M309.057,44.213h-33.339c-5.523,0-10,4.477-10,10v48.079l-19.183,19.183h-89.445c-5.523,0-10,4.477-10,10v113.358c0,5.523,4.477,10,10,10h89.445l38.763,38.763c1.953,1.953,4.512,2.929,7.071,2.929s5.135-.983,7.089-2.947l62.54-62.864c1.864-1.874,2.911-4.41,2.911-7.053v-71.373c0-2.652-1.054-5.196-2.929-7.071l-42.924-42.924v-48.079c0-5.523-4.477-10-10-10h0Z" fill="#231815"/>
  </g>
  <g>
    <path d="M292.388,211.523c-1.336,0-2.592-.52-3.536-1.464l-40.245-40.246h-91.517c-2.757,0-5-2.243-5-5v-33.339c0-2.757,2.243-5,5-5h91.517l22.111-22.111v-50.15c0-2.757,2.243-5,5-5h33.34c2.757,0,5,2.243,5,5v50.15l40.246,40.245c.944.944,1.464,2.2,1.464,3.536s-.52,2.591-1.464,3.535l-58.38,58.38c-.944.944-2.2,1.464-3.536,1.464Z" fill="#8e8e8e"/>
    <path d="M309.057,54.213v52.221l2.929,2.929,38.782,38.782-58.38,58.38-38.781-38.781-2.929-2.929h-93.588v-33.339h93.587l2.929-2.929,19.183-19.183,2.929-2.929v-52.221h33.339M309.057,44.213h-33.339c-5.523,0-10,4.477-10,10v48.079l-19.183,19.183h-89.445c-5.523,0-10,4.477-10,10v33.339c0,5.523,4.477,10,10,10h89.445l38.781,38.781c1.953,1.953,4.512,2.929,7.071,2.929s5.118-.976,7.071-2.929l58.38-58.38c3.905-3.905,3.905-10.237,0-14.142l-38.782-38.782v-48.079c0-5.523-4.477-10-10-10h0Z" fill="#231815"/>
  </g>
  <g>
    <path d="M294.652,184.523c-1.336,0-2.592-.52-3.536-1.464l-33.369-33.369c-.944-.944-1.464-2.2-1.464-3.535v-14.454l34.833-34.834c.944-.944,2.2-1.464,3.536-1.464s2.591.52,3.535,1.464l33.369,33.369c.944.945,1.465,2.201,1.465,3.536v12.383c0,1.315-.534,2.604-1.464,3.534l-33.37,33.37c-.944.944-2.2,1.464-3.535,1.464Z" fill="#fff"/>
    <path d="M294.652,100.403h0l33.369,33.369v12.383s-7.756,7.756-7.756,7.756l-25.614,25.614-25.947-25.947-7.422-7.422v-12.383l33.36-33.368s.005,0,.01,0M294.652,90.403c-2.559,0-5.118.976-7.071,2.929l-36.298,36.298v16.525c0,2.652,1.054,5.196,2.929,7.071l7.422,7.422,25.947,25.947c1.953,1.953,4.512,2.929,7.071,2.929s5.118-.976,7.071-2.929l25.614-25.614,7.756-7.756c1.875-1.875,2.929-4.419,2.929-7.071v-12.382c0-2.652-1.054-5.196-2.929-7.071l-33.369-33.369c-1.953-1.953-4.512-2.929-7.071-2.929h0Z" fill="#231815"/>
  </g>
  <g>
    <path d="M294.652,163.857c-1.336,0-2.592-.52-3.536-1.464l-29.228-29.228c-.944-.944-1.464-2.2-1.464-3.535s.52-2.592,1.464-3.536l29.228-29.228c.944-.944,2.2-1.464,3.536-1.464s2.591.52,3.535,1.464l29.228,29.228c.944.944,1.464,2.2,1.464,3.536s-.52,2.591-1.464,3.535l-29.228,29.228c-.944.944-2.2,1.464-3.535,1.464Z" fill="#c6c6c6"/>
    <path d="M294.652,100.403l29.227,29.227-29.227,29.227-29.227-29.227,29.217-29.226s.005,0,.01,0M294.652,90.403c-2.559,0-5.118.976-7.071,2.929l-29.227,29.227c-3.905,3.905-3.905,10.237,0,14.142l29.227,29.227c1.953,1.953,4.512,2.929,7.071,2.929s5.118-.976,7.071-2.929l29.227-29.227c3.905-3.905,3.905-10.237,0-14.142l-29.227-29.227c-1.953-1.953-4.512-2.929-7.071-2.929h0Z" fill="#231815"/>
  </g>
  <g>
    <path d="M349.16,346.111h14.68c1.468,0,2.66,1.192,2.66,2.66v14.68c0,1.468-1.192,2.66-2.66,2.66h-14.679c-1.469,0-2.661-1.192-2.661-2.661v-14.679c0-1.468,1.192-2.66,2.66-2.66Z" fill="#fff"/>
    <path d="M363.839,348.611c.089,0,.161.072.161.161v14.679c0,.089-.072.161-.161.161h-14.679c-.089,0-.161-.072-.161-.161v-14.679c0-.089.072-.161.161-.161h14.679M363.839,343.611h-14.679c-2.85,0-5.161,2.31-5.161,5.161v14.679c0,2.85,2.31,5.161,5.161,5.161h14.679c2.85,0,5.161-2.31,5.161-5.161v-14.679c0-2.85-2.31-5.161-5.161-5.161h0Z" fill="#231815"/>
  </g>
  <g>
    <path d="M259.253,346.111h14.68c1.468,0,2.66,1.192,2.66,2.66v14.679c0,1.469-1.192,2.661-2.661,2.661h-14.678c-1.469,0-2.661-1.192-2.661-2.661v-14.679c0-1.468,1.192-2.66,2.66-2.66Z" fill="#fff"/>
    <path d="M273.932,348.611c.089,0,.161.072.161.161v14.679c0,.089-.072.161-.161.161h-14.679c-.089,0-.161-.072-.161-.161v-14.679c0-.089.072-.161.161-.161h14.679M273.932,343.611h-14.679c-2.85,0-5.161,2.31-5.161,5.161v14.679c0,2.85,2.31,5.161,5.161,5.161h14.679c2.85,0,5.161-2.31,5.161-5.161v-14.679c0-2.85-2.31-5.161-5.161-5.161h0Z" fill="#231815"/>
  </g>
  <g>
    <path d="M319.253,346.5h14.68c1.468,0,2.66,1.192,2.66,2.66v14.679c0,1.469-1.192,2.661-2.661,2.661h-14.679c-1.468,0-2.66-1.192-2.66-2.66v-14.68c0-1.468,1.192-2.66,2.66-2.66Z" fill="#fff"/>
    <path d="M333.932,349c.089,0,.161.072.161.161v14.679c0,.089-.072.161-.161.161h-14.679c-.089,0-.161-.072-.161-.161v-14.679c0-.089.072-.161.161-.161h14.679M333.932,344h-14.679c-2.85,0-5.161,2.31-5.161,5.161v14.679c0,2.85,2.31,5.161,5.161,5.161h14.679c2.85,0,5.161-2.311,5.161-5.161v-14.679c0-2.85-2.31-5.161-5.161-5.161h0Z" fill="#231815"/>
  </g>
  <g>
    <path d="M289.253,346.5h14.68c1.468,0,2.66,1.192,2.66,2.66v14.679c0,1.469-1.192,2.661-2.661,2.661h-14.679c-1.468,0-2.66-1.192-2.66-2.66v-14.68c0-1.468,1.192-2.66,2.66-2.66Z" fill="#fff"/>
    <path d="M303.932,349c.089,0,.161.072.161.161v14.679c0,.089-.072.161-.161.161h-14.679c-.089,0-.161-.072-.161-.161v-14.679c0-.089.072-.161.161-.161h14.679M303.932,344h-14.679c-2.85,0-5.161,2.31-5.161,5.161v14.679c0,2.85,2.31,5.161,5.161,5.161h14.679c2.85,0,5.161-2.311,5.161-5.161v-14.679c0-2.85-2.31-5.161-5.161-5.161h0Z" fill="#231815"/>
  </g>
  <g>
    <path d="M349.16,315.722h14.679c1.469,0,2.661,1.192,2.661,2.661v14.679c0,1.468-1.192,2.66-2.66,2.66h-14.68c-1.468,0-2.66-1.192-2.66-2.66v-14.68c0-1.468,1.192-2.66,2.66-2.66Z" fill="#fff"/>
    <path d="M363.839,318.222c.089,0,.161.072.161.161v14.679c0,.089-.072.161-.161.161h-14.679c-.089,0-.161-.072-.161-.161v-14.679c0-.089.072-.161.161-.161h14.679M363.839,313.222h-14.679c-2.85,0-5.161,2.31-5.161,5.161v14.679c0,2.85,2.31,5.161,5.161,5.161h14.679c2.85,0,5.161-2.311,5.161-5.161v-14.679c0-2.85-2.31-5.161-5.161-5.161h0Z" fill="#231815"/>
  </g>
  <g>
    <path d="M259.253,315.722h14.679c1.469,0,2.661,1.192,2.661,2.661v14.678c0,1.469-1.192,2.661-2.661,2.661h-14.679c-1.468,0-2.66-1.192-2.66-2.66v-14.68c0-1.468,1.192-2.66,2.66-2.66Z" fill="#fff"/>
    <path d="M273.932,318.222c.089,0,.161.072.161.161v14.679c0,.089-.072.161-.161.161h-14.679c-.089,0-.161-.072-.161-.161v-14.679c0-.089.072-.161.161-.161h14.679M273.932,313.222h-14.679c-2.85,0-5.161,2.31-5.161,5.161v14.679c0,2.85,2.31,5.161,5.161,5.161h14.679c2.85,0,5.161-2.311,5.161-5.161v-14.679c0-2.85-2.31-5.161-5.161-5.161h0Z" fill="#231815"/>
  </g>
  <g>
    <path d="M319.253,316.111h14.68c1.468,0,2.66,1.192,2.66,2.66v14.679c0,1.469-1.192,2.661-2.661,2.661h-14.678c-1.469,0-2.661-1.192-2.661-2.661v-14.679c0-1.468,1.192-2.66,2.66-2.66Z" fill="#fff"/>
    <path d="M333.932,318.611c.089,0,.161.072.161.161v14.679c0,.089-.072.161-.161.161h-14.679c-.089,0-.161-.072-.161-.161v-14.679c0-.089.072-.161.161-.161h14.679M333.932,313.611h-14.679c-2.85,0-5.161,2.31-5.161,5.161v14.679c0,2.85,2.31,5.161,5.161,5.161h14.679c2.85,0,5.161-2.311,5.161-5.161v-14.679c0-2.85-2.31-5.161-5.161-5.161h0Z" fill="#231815"/>
  </g>
  <g>
    <path d="M289.253,316.111h14.68c1.468,0,2.66,1.192,2.66,2.66v14.679c0,1.469-1.192,2.661-2.661,2.661h-14.678c-1.469,0-2.661-1.192-2.661-2.661v-14.679c0-1.468,1.192-2.66,2.66-2.66Z" fill="#fff"/>
    <path d="M303.932,318.611c.089,0,.161.072.161.161v14.679c0,.089-.072.161-.161.161h-14.679c-.089,0-.161-.072-.161-.161v-14.679c0-.089.072-.161.161-.161h14.679M303.932,313.611h-14.679c-2.85,0-5.161,2.31-5.161,5.161v14.679c0,2.85,2.31,5.161,5.161,5.161h14.679c2.85,0,5.161-2.311,5.161-5.161v-14.679c0-2.85-2.31-5.161-5.161-5.161h0Z" fill="#231815"/>
  </g>
</svg>