<?xml version="1.0" encoding="UTF-8"?>
<svg id="_레이어_1" data-name="레이어 1" xmlns="http://www.w3.org/2000/svg" viewBox="0 0 512 512">
  <g id="Server1">
    <rect id="_사각형_" data-name="&amp;lt;사각형&amp;gt;" x="51.19" y="51.19" width="409.621" height="409.621" fill="#5f5f5f" stroke="#231815" stroke-miterlimit="10" stroke-width="10"/>
    <path d="M88.889,197.953h334.222v223.784c0,4.01-3.256,7.266-7.266,7.266H96.155c-4.01,0-7.266-3.256-7.266-7.266v-223.784h0Z" fill="#fff" stroke="#231815" stroke-miterlimit="10" stroke-width="10"/>
    <path d="M88.889,171.554h334.222v223.784c0,4.01-3.256,7.266-7.266,7.266H96.155c-4.01,0-7.266-3.256-7.266-7.266v-223.784h0Z" fill="#8e8e8e" stroke="#231815" stroke-miterlimit="10" stroke-width="10"/>
    <path d="M267.625,151.936h155.486v223.784c0,4.01-3.256,7.266-7.266,7.266h-140.955c-4.01,0-7.266-3.256-7.266-7.266v-223.784h0Z" fill="#fff" stroke="#231815" stroke-miterlimit="10" stroke-width="10"/>
    <path d="M88.889,151.936h155.486v223.784c0,4.01-3.256,7.266-7.266,7.266H96.155c-4.01,0-7.266-3.256-7.266-7.266v-223.784h0Z" fill="#fff" stroke="#231815" stroke-miterlimit="10" stroke-width="10"/>
    <rect x="267.625" y="14.279" width="155.486" height="231.049" rx="7.266" ry="7.266" fill="#8e8e8e" stroke="#231815" stroke-miterlimit="10" stroke-width="10"/>
    <rect x="88.889" y="14.279" width="155.486" height="231.049" rx="7.266" ry="7.266" fill="#8e8e8e" stroke="#231815" stroke-miterlimit="10" stroke-width="10"/>
    <circle cx="256" cy="129.804" r="93.659" fill="#fff" stroke="#231815" stroke-miterlimit="10" stroke-width="10"/>
    <circle cx="256" cy="117.127" r="93.659" fill="#c6c6c6" stroke="#231815" stroke-miterlimit="10" stroke-width="10"/>
  </g>
</svg>